<svg xmlns="http://www.w3.org/2000/svg" xmlns:xlink="http://www.w3.org/1999/xlink" contentStyleType="text/css" data-diagram-type="ACTIVITY" height="539px" preserveAspectRatio="none" style="width:1590px;height:539px;background:#FFFFFF;" version="1.1" viewBox="0 0 1590 539" width="1590px" zoomAndPan="magnify"><?plantuml 1.2026.7beta1?><defs/><g><ellipse cx="998.7454" cy="25" fill="#222222" rx="10" ry="10" style="stroke:#222222;stroke-width:1;"/><rect fill="#FFFFFF" height="50.2656" rx="12.5" ry="12.5" style="stroke:#222222;stroke-width:0.5;" width="420.3213" x="788.5847" y="55"/><text fill="#000000" font-family="'Segoe UI'" font-size="13" lengthAdjust="spacing" textLength="400.3213" x="798.5847" y="77.0669">Ng&#432;&#7901;i d&#249;ng nh&#7845;n bi&#7875;u t&#432;&#7907;ng l&#432;u tr&#234;n trang t&#236;m ki&#7871;m vi&#7879;c l&#224;m</text><text fill="#000000" font-family="'Segoe UI'" font-size="13" lengthAdjust="spacing" textLength="219.0005" x="798.5847" y="92.1997">ho&#7863;c trang chi ti&#7871;t tin tuy&#7875;n d&#7909;ng</text><polygon fill="#FFFFFF" points="949.44,125.2656,1048.0508,125.2656,1060.0508,137.2656,1048.0508,149.2656,949.44,149.2656,937.44,137.2656,949.44,125.2656" style="stroke:#222222;stroke-width:0.5;stroke-linejoin:miter;stroke-miterlimit:10;"/><text fill="#000000" font-family="'Segoe UI'" font-size="13" lengthAdjust="spacing" textLength="98.6108" x="949.44" y="141.7661">&#272;&#227; &#273;&#259;ng nh&#7853;p?</text><text fill="#000000" font-family="'Segoe UI'" font-size="13" lengthAdjust="spacing" textLength="17.0308" x="920.4092" y="134.1997">C&#243;</text><text fill="#000000" font-family="'Segoe UI'" font-size="13" lengthAdjust="spacing" textLength="107.1929" x="1060.0508" y="134.1997">Ch&#432;a &#273;&#259;ng nh&#7853;p</text><polygon fill="#FFFFFF" points="569.1514,159.2656,716.6646,159.2656,728.6646,171.2656,716.6646,183.2656,569.1514,183.2656,557.1514,171.2656,569.1514,159.2656" style="stroke:#222222;stroke-width:0.5;stroke-linejoin:miter;stroke-miterlimit:10;"/><text fill="#000000" font-family="'Segoe UI'" font-size="13" lengthAdjust="spacing" textLength="147.5132" x="569.1514" y="175.7661">L&#224; t&#224;i kho&#7843;n &#7913;ng vi&#234;n?</text><text fill="#000000" font-family="'Segoe UI'" font-size="13" lengthAdjust="spacing" textLength="17.0308" x="540.1207" y="168.1997">C&#243;</text><text fill="#000000" font-family="'Segoe UI'" font-size="13" lengthAdjust="spacing" textLength="226.5732" x="728.6646" y="168.1997">Nh&#224; tuy&#7875;n d&#7909;ng ho&#7863;c qu&#7843;n tr&#7883; vi&#234;n</text><polygon fill="#FFFFFF" points="280.5951,193.2656,445.8373,193.2656,457.8373,205.2656,445.8373,217.2656,280.5951,217.2656,268.5951,205.2656,280.5951,193.2656" style="stroke:#222222;stroke-width:0.5;stroke-linejoin:miter;stroke-miterlimit:10;"/><text fill="#000000" font-family="'Segoe UI'" font-size="13" lengthAdjust="spacing" textLength="165.2422" x="280.5951" y="209.7661">Tin &#273;&#227; &#273;&#432;&#7907;c l&#432;u tr&#432;&#7899;c &#273;&#243;?</text><text fill="#000000" font-family="'Segoe UI'" font-size="13" lengthAdjust="spacing" textLength="17.0308" x="251.5643" y="202.1997">C&#243;</text><text fill="#000000" font-family="'Segoe UI'" font-size="13" lengthAdjust="spacing" textLength="33.522" x="457.8373" y="202.1997">Ch&#432;a</text><rect fill="#FFFFFF" height="35.1328" rx="12.5" ry="12.5" style="stroke:#222222;stroke-width:0.5;" width="339.0269" x="16" y="227.2656"/><text fill="#000000" font-family="'Segoe UI'" font-size="13" lengthAdjust="spacing" textLength="319.0269" x="26" y="249.3325">H&#7879; th&#7889;ng x&#243;a TinTuyenDung kh&#7887;i ViecLamDaLuu</text><rect fill="#FFFFFF" height="35.1328" rx="12.5" ry="12.5" style="stroke:#222222;stroke-width:0.5;" width="300.9663" x="35.0303" y="297.3984"/><text fill="#000000" font-family="'Segoe UI'" font-size="13" lengthAdjust="spacing" textLength="280.9663" x="45.0303" y="319.4653">C&#7853;p nh&#7853;t bi&#7875;u t&#432;&#7907;ng v&#7873; tr&#7841;ng th&#225;i ch&#432;a l&#432;u</text><rect fill="#FFFFFF" height="35.1328" rx="12.5" ry="12.5" style="stroke:#222222;stroke-width:0.5;" width="264.791" x="53.1179" y="352.5313"/><text fill="#000000" font-family="'Segoe UI'" font-size="13" lengthAdjust="spacing" textLength="244.791" x="63.1179" y="374.5981">Hi&#7875;n th&#7883; th&#244;ng b&#225;o &#273;&#227; b&#7887; l&#432;u vi&#7879;c l&#224;m</text><rect fill="#FFFFFF" height="35.1328" rx="12.5" ry="12.5" style="stroke:#222222;stroke-width:0.5;" width="331.7842" x="375.0269" y="227.2656"/><text fill="#000000" font-family="'Segoe UI'" font-size="13" lengthAdjust="spacing" textLength="311.7842" x="385.0269" y="249.3325">H&#7879; th&#7889;ng l&#432;u TinTuyenDung v&#224;o ViecLamDaLuu</text><rect fill="#FFFFFF" height="35.1328" rx="12.5" ry="12.5" style="stroke:#222222;stroke-width:0.5;" width="285.5923" x="398.1228" y="297.3984"/><text fill="#000000" font-family="'Segoe UI'" font-size="13" lengthAdjust="spacing" textLength="265.5923" x="408.1228" y="319.4653">C&#7853;p nh&#7853;t bi&#7875;u t&#432;&#7907;ng v&#7873; tr&#7841;ng th&#225;i &#273;&#227; l&#432;u</text><rect fill="#FFFFFF" height="35.1328" rx="12.5" ry="12.5" style="stroke:#222222;stroke-width:0.5;" width="244.4531" x="418.6924" y="352.5313"/><text fill="#000000" font-family="'Segoe UI'" font-size="13" lengthAdjust="spacing" textLength="224.4531" x="428.6924" y="374.5981">Hi&#7875;n th&#7883; th&#244;ng b&#225;o &#273;&#227; l&#432;u vi&#7879;c l&#224;m</text><polygon fill="#FFFFFF" points="363.2162,393.6641,375.2162,405.6641,363.2162,417.6641,351.2162,405.6641,363.2162,393.6641" style="stroke:#222222;stroke-width:0.5;stroke-linejoin:miter;stroke-miterlimit:10;"/><rect fill="#FFFFFF" height="35.1328" rx="12.5" ry="12.5" style="stroke:#222222;stroke-width:0.5;" width="371.5776" x="736.811" y="193.2656"/><text fill="#000000" font-family="'Segoe UI'" font-size="13" lengthAdjust="spacing" textLength="351.5776" x="746.811" y="215.3325">Hi&#7875;n th&#7883; c&#7843;nh b&#225;o ch&#7881; t&#224;i kho&#7843;n &#7913;ng vi&#234;n m&#7899;i l&#432;u &#273;&#432;&#7907;c</text><rect fill="#FFFFFF" height="35.1328" rx="12.5" ry="12.5" style="stroke:#222222;stroke-width:0.5;" width="287.1982" x="779.0007" y="263.3984"/><text fill="#000000" font-family="'Segoe UI'" font-size="13" lengthAdjust="spacing" textLength="267.1982" x="789.0007" y="285.4653">&#272;i&#7873;u h&#432;&#7899;ng v&#7873; trang ch&#237;nh c&#7911;a vai tr&#242; &#273;&#243;</text><polygon fill="#FFFFFF" points="642.908,423.6641,654.908,435.6641,642.908,447.6641,630.908,435.6641,642.908,423.6641" style="stroke:#222222;stroke-width:0.5;stroke-linejoin:miter;stroke-miterlimit:10;"/><rect fill="#FFFFFF" height="35.1328" rx="12.5" ry="12.5" style="stroke:#222222;stroke-width:0.5;" width="432.3882" x="1138.3887" y="159.2656"/><text fill="#000000" font-family="'Segoe UI'" font-size="13" lengthAdjust="spacing" textLength="412.3882" x="1148.3887" y="181.3325">Hi&#7875;n th&#7883; th&#244;ng b&#225;o y&#234;u c&#7847;u &#273;&#259;ng nh&#7853;p b&#7857;ng t&#224;i kho&#7843;n &#7913;ng vi&#234;n</text><rect fill="#FFFFFF" height="35.1328" rx="12.5" ry="12.5" style="stroke:#222222;stroke-width:0.5;" width="228.4761" x="1240.3447" y="229.3984"/><text fill="#000000" font-family="'Segoe UI'" font-size="13" lengthAdjust="spacing" textLength="208.4761" x="1250.3447" y="251.4653">&#272;i&#7873;u h&#432;&#7899;ng t&#7899;i trang &#273;&#259;ng nh&#7853;p</text><polygon fill="#FFFFFF" points="998.7454,453.6641,1010.7454,465.6641,998.7454,477.6641,986.7454,465.6641,998.7454,453.6641" style="stroke:#222222;stroke-width:0.5;stroke-linejoin:miter;stroke-miterlimit:10;"/><ellipse cx="998.7454" cy="508.6641" fill="none" rx="11" ry="11" style="stroke:#222222;stroke-width:1;"/><ellipse cx="998.7454" cy="508.6641" fill="#222222" rx="6" ry="6" style="stroke:#222222;stroke-width:1;"/><line style="stroke:#181818;stroke-width:1;" x1="998.7454" x2="998.7454" y1="35" y2="55"/><polygon fill="#181818" points="994.7454,45,998.7454,55,1002.7454,45,998.7454,49" style="stroke:#181818;stroke-width:1;stroke-linejoin:miter;stroke-miterlimit:10;"/><line style="stroke:#181818;stroke-width:1;" x1="185.5134" x2="185.5134" y1="262.3984" y2="297.3984"/><polygon fill="#181818" points="181.5134,287.3984,185.5134,297.3984,189.5134,287.3984,185.5134,291.3984" style="stroke:#181818;stroke-width:1;stroke-linejoin:miter;stroke-miterlimit:10;"/><line style="stroke:#181818;stroke-width:1;" x1="185.5134" x2="185.5134" y1="332.5313" y2="352.5313"/><polygon fill="#181818" points="181.5134,342.5313,185.5134,352.5313,189.5134,342.5313,185.5134,346.5313" style="stroke:#181818;stroke-width:1;stroke-linejoin:miter;stroke-miterlimit:10;"/><line style="stroke:#181818;stroke-width:1;" x1="540.9189" x2="540.9189" y1="262.3984" y2="297.3984"/><polygon fill="#181818" points="536.9189,287.3984,540.9189,297.3984,544.9189,287.3984,540.9189,291.3984" style="stroke:#181818;stroke-width:1;stroke-linejoin:miter;stroke-miterlimit:10;"/><line style="stroke:#181818;stroke-width:1;" x1="540.9189" x2="540.9189" y1="332.5313" y2="352.5313"/><polygon fill="#181818" points="536.9189,342.5313,540.9189,352.5313,544.9189,342.5313,540.9189,346.5313" style="stroke:#181818;stroke-width:1;stroke-linejoin:miter;stroke-miterlimit:10;"/><line style="stroke:#181818;stroke-width:1;" x1="268.5951" x2="185.5134" y1="205.2656" y2="205.2656"/><line style="stroke:#181818;stroke-width:1;" x1="185.5134" x2="185.5134" y1="205.2656" y2="227.2656"/><polygon fill="#181818" points="181.5134,217.2656,185.5134,227.2656,189.5134,217.2656,185.5134,221.2656" style="stroke:#181818;stroke-width:1;stroke-linejoin:miter;stroke-miterlimit:10;"/><line style="stroke:#181818;stroke-width:1;" x1="457.8373" x2="540.9189" y1="205.2656" y2="205.2656"/><line style="stroke:#181818;stroke-width:1;" x1="540.9189" x2="540.9189" y1="205.2656" y2="227.2656"/><polygon fill="#181818" points="536.9189,217.2656,540.9189,227.2656,544.9189,217.2656,540.9189,221.2656" style="stroke:#181818;stroke-width:1;stroke-linejoin:miter;stroke-miterlimit:10;"/><line style="stroke:#181818;stroke-width:1;" x1="185.5134" x2="185.5134" y1="387.6641" y2="405.6641"/><line style="stroke:#181818;stroke-width:1;" x1="185.5134" x2="351.2162" y1="405.6641" y2="405.6641"/><polygon fill="#181818" points="341.2162,401.6641,351.2162,405.6641,341.2162,409.6641,345.2162,405.6641" style="stroke:#181818;stroke-width:1;stroke-linejoin:miter;stroke-miterlimit:10;"/><line style="stroke:#181818;stroke-width:1;" x1="540.9189" x2="540.9189" y1="387.6641" y2="405.6641"/><line style="stroke:#181818;stroke-width:1;" x1="540.9189" x2="375.2162" y1="405.6641" y2="405.6641"/><polygon fill="#181818" points="385.2162,401.6641,375.2162,405.6641,385.2162,409.6641,381.2162,405.6641" style="stroke:#181818;stroke-width:1;stroke-linejoin:miter;stroke-miterlimit:10;"/><line style="stroke:#181818;stroke-width:1;" x1="922.5999" x2="922.5999" y1="228.3984" y2="263.3984"/><polygon fill="#181818" points="918.5999,253.3984,922.5999,263.3984,926.5999,253.3984,922.5999,257.3984" style="stroke:#181818;stroke-width:1;stroke-linejoin:miter;stroke-miterlimit:10;"/><line style="stroke:#181818;stroke-width:1;" x1="557.1514" x2="363.2162" y1="171.2656" y2="171.2656"/><line style="stroke:#181818;stroke-width:1;" x1="363.2162" x2="363.2162" y1="171.2656" y2="193.2656"/><polygon fill="#181818" points="359.2162,183.2656,363.2162,193.2656,367.2162,183.2656,363.2162,187.2656" style="stroke:#181818;stroke-width:1;stroke-linejoin:miter;stroke-miterlimit:10;"/><line style="stroke:#181818;stroke-width:1;" x1="728.6646" x2="922.5999" y1="171.2656" y2="171.2656"/><line style="stroke:#181818;stroke-width:1;" x1="922.5999" x2="922.5999" y1="171.2656" y2="193.2656"/><polygon fill="#181818" points="918.5999,183.2656,922.5999,193.2656,926.5999,183.2656,922.5999,187.2656" style="stroke:#181818;stroke-width:1;stroke-linejoin:miter;stroke-miterlimit:10;"/><line style="stroke:#181818;stroke-width:1;" x1="363.2162" x2="363.2162" y1="417.6641" y2="435.6641"/><line style="stroke:#181818;stroke-width:1;" x1="363.2162" x2="630.908" y1="435.6641" y2="435.6641"/><polygon fill="#181818" points="620.908,431.6641,630.908,435.6641,620.908,439.6641,624.908,435.6641" style="stroke:#181818;stroke-width:1;stroke-linejoin:miter;stroke-miterlimit:10;"/><line style="stroke:#181818;stroke-width:1;" x1="922.5999" x2="922.5999" y1="298.5313" y2="435.6641"/><line style="stroke:#181818;stroke-width:1;" x1="922.5999" x2="654.908" y1="435.6641" y2="435.6641"/><polygon fill="#181818" points="664.908,431.6641,654.908,435.6641,664.908,439.6641,660.908,435.6641" style="stroke:#181818;stroke-width:1;stroke-linejoin:miter;stroke-miterlimit:10;"/><line style="stroke:#181818;stroke-width:1;" x1="1354.5828" x2="1354.5828" y1="194.3984" y2="229.3984"/><polygon fill="#181818" points="1350.5828,219.3984,1354.5828,229.3984,1358.5828,219.3984,1354.5828,223.3984" style="stroke:#181818;stroke-width:1;stroke-linejoin:miter;stroke-miterlimit:10;"/><line style="stroke:#181818;stroke-width:1;" x1="937.44" x2="642.908" y1="137.2656" y2="137.2656"/><line style="stroke:#181818;stroke-width:1;" x1="642.908" x2="642.908" y1="137.2656" y2="159.2656"/><polygon fill="#181818" points="638.908,149.2656,642.908,159.2656,646.908,149.2656,642.908,153.2656" style="stroke:#181818;stroke-width:1;stroke-linejoin:miter;stroke-miterlimit:10;"/><line style="stroke:#181818;stroke-width:1;" x1="1060.0508" x2="1354.5828" y1="137.2656" y2="137.2656"/><line style="stroke:#181818;stroke-width:1;" x1="1354.5828" x2="1354.5828" y1="137.2656" y2="159.2656"/><polygon fill="#181818" points="1350.5828,149.2656,1354.5828,159.2656,1358.5828,149.2656,1354.5828,153.2656" style="stroke:#181818;stroke-width:1;stroke-linejoin:miter;stroke-miterlimit:10;"/><line style="stroke:#181818;stroke-width:1;" x1="642.908" x2="642.908" y1="447.6641" y2="465.6641"/><line style="stroke:#181818;stroke-width:1;" x1="642.908" x2="986.7454" y1="465.6641" y2="465.6641"/><polygon fill="#181818" points="976.7454,461.6641,986.7454,465.6641,976.7454,469.6641,980.7454,465.6641" style="stroke:#181818;stroke-width:1;stroke-linejoin:miter;stroke-miterlimit:10;"/><line style="stroke:#181818;stroke-width:1;" x1="1354.5828" x2="1354.5828" y1="264.5313" y2="465.6641"/><line style="stroke:#181818;stroke-width:1;" x1="1354.5828" x2="1010.7454" y1="465.6641" y2="465.6641"/><polygon fill="#181818" points="1020.7454,461.6641,1010.7454,465.6641,1020.7454,469.6641,1016.7454,465.6641" style="stroke:#181818;stroke-width:1;stroke-linejoin:miter;stroke-miterlimit:10;"/><line style="stroke:#181818;stroke-width:1;" x1="998.7454" x2="998.7454" y1="105.2656" y2="125.2656"/><polygon fill="#181818" points="994.7454,115.2656,998.7454,125.2656,1002.7454,115.2656,998.7454,119.2656" style="stroke:#181818;stroke-width:1;stroke-linejoin:miter;stroke-miterlimit:10;"/><line style="stroke:#181818;stroke-width:1;" x1="998.7454" x2="998.7454" y1="477.6641" y2="497.6641"/><polygon fill="#181818" points="994.7454,487.6641,998.7454,497.6641,1002.7454,487.6641,998.7454,491.6641" style="stroke:#181818;stroke-width:1;stroke-linejoin:miter;stroke-miterlimit:10;"/><?plantuml-src hLCnRzD05DxzAvxAqew5BHcGcgegKfIb1UQBVObFiU-2VMS8YA7gW103pOoG4aLLHKMbG90GyS1mKVw7_mdlxcA8IJ8WuS6MttlV-xxl_3djCTud2OaXe1sY8daYk6oHcCBU6UqA2eyVxNdfjg4pzfB2uOErPXgIG3ndl0iT4gLqhHCnJkMWJq4aCXHh3U9BbZ4vW5SUm17nUzr4A1uqH2GIU1eoIKrT905DNEtUVNjXzPYHMF1W5wXiRyKUaR9qQ2_ljPTAaaYlrkekfqN-aK6WVw0H7XRpQmvjLkIN2gJfJR0SBQVubkXRZdU21Qa_nz1ZnVnd31aEl_4XqgFO2qKn_-wlXloGWJGp4X-8L0FSoY4eyclUhNki0_kBAps1nN1nkUA-wpyy01bI3liDFJj0wMQggKV8E6BGC_id78hy4m8oXeB-ddU8S-HR3Erkwy4lBPYt3xxfpJQH0BLJz8Bb8XyYmGiz8u2hpjM0ycE5bHvstZDumgZV9F4nQIfLBw4D8z-va1idc1Nv1T8Nyx4vlL2F6HxFSagihjyhJfaz8SF_panzm-6s7WldfOtSpiVQaJiinVoX4RDnknKBgrZ9z4Zy7oDMt3_us6611wpZbLPQeVdcbSJ0AbpFbCq0Qi3bDWFESfNLDqEXO_MnydPdWY36I32dgeoBarHRNE7A2mMXZSqVzoxT-Wu9_2A_8P0HPlwFhpPO1kpSh7sMQigDujsdDD2toXYuKLKK9c3-nVvzsvqOuatDqjfpeYlhwfvJcKhH_mK0?></g></svg>